<svg width="46" height="40" viewBox="0 0 46 40" fill="none" xmlns="http://www.w3.org/2000/svg">
<path d="M23.1429 0C10.5179 0 0.285767 8.3125 0.285767 18.5714C0.285767 23 2.19648 27.0536 5.37505 30.2411C4.25898 34.7411 0.526838 38.75 0.482195 38.7946C0.285767 39 0.232195 39.3036 0.348267 39.5714C0.464338 39.8393 0.714338 40 1.00005 40C6.91969 40 11.3572 37.1607 13.5536 35.4107C16.4733 36.5089 19.7143 37.1429 23.1429 37.1429C35.7679 37.1429 46 28.8304 46 18.5714C46 8.3125 35.7679 0 23.1429 0ZM11.7143 21.4286C10.134 21.4286 8.85719 20.1518 8.85719 18.5714C8.85719 16.9911 10.134 15.7143 11.7143 15.7143C13.2947 15.7143 14.5715 16.9911 14.5715 18.5714C14.5715 20.1518 13.2947 21.4286 11.7143 21.4286ZM23.1429 21.4286C21.5626 21.4286 20.2858 20.1518 20.2858 18.5714C20.2858 16.9911 21.5626 15.7143 23.1429 15.7143C24.7233 15.7143 26.0001 16.9911 26.0001 18.5714C26.0001 20.1518 24.7233 21.4286 23.1429 21.4286ZM34.5715 21.4286C32.9911 21.4286 31.7143 20.1518 31.7143 18.5714C31.7143 16.9911 32.9911 15.7143 34.5715 15.7143C36.1518 15.7143 37.4286 16.9911 37.4286 18.5714C37.4286 20.1518 36.1518 21.4286 34.5715 21.4286Z" fill="#757575"/>
</svg>
