<svg width="21" height="18" viewBox="0 0 21 18" fill="none" xmlns="http://www.w3.org/2000/svg">
<path d="M20.4524 4.64579V15.8424C20.4524 16.8726 19.6166 17.7085 18.5863 17.7085H2.41346C1.38322 17.7085 0.547363 16.8726 0.547363 15.8424V4.64579C0.547363 3.61555 1.38322 2.7797 2.41346 2.7797H5.83464L6.31283 1.50064C6.58497 0.77364 7.28087 0.291565 8.05841 0.291565H12.9375C13.715 0.291565 14.4109 0.77364 14.6831 1.50064L15.1651 2.7797H18.5863C19.6166 2.7797 20.4524 3.61555 20.4524 4.64579ZM15.1651 10.2441C15.1651 7.67043 13.0736 5.57884 10.4999 5.57884C7.92623 5.57884 5.83464 7.67043 5.83464 10.2441C5.83464 12.8178 7.92623 14.9093 10.4999 14.9093C13.0736 14.9093 15.1651 12.8178 15.1651 10.2441ZM13.9211 10.2441C13.9211 12.1296 12.3854 13.6653 10.4999 13.6653C8.61435 13.6653 7.07871 12.1296 7.07871 10.2441C7.07871 8.35855 8.61435 6.82291 10.4999 6.82291C12.3854 6.82291 13.9211 8.35855 13.9211 10.2441Z" fill="black"/>
</svg>
