<svg width="36" height="40" viewBox="0 0 36 40" fill="none" xmlns="http://www.w3.org/2000/svg">
<path d="M17.7857 40C20.5451 40 22.7834 37.7617 22.7834 35H12.788C12.788 37.7617 15.0263 40 17.7857 40ZM34.613 28.3039C33.1037 26.682 30.2794 24.2422 30.2794 16.25C30.2794 10.1797 26.0232 5.32031 20.2841 4.12813V2.5C20.2841 1.11953 19.1654 0 17.7857 0C16.406 0 15.2873 1.11953 15.2873 2.5V4.12813C9.5482 5.32031 5.29195 10.1797 5.29195 16.25C5.29195 24.2422 2.46773 26.682 0.958355 28.3039C0.489605 28.8078 0.281792 29.4102 0.285699 30C0.294292 31.2812 1.29976 32.5 2.79351 32.5H32.7779C34.2716 32.5 35.2779 31.2812 35.2857 30C35.2896 29.4102 35.0818 28.807 34.613 28.3039Z" fill="#757575"/>
</svg>
